<svg xmlns="http://www.w3.org/2000/svg" xmlns:xlink="http://www.w3.org/1999/xlink" width="300.907" height="52.939" viewBox="0 0 300.907 52.939">
  <defs>
    <clipPath id="clip-path">
      <rect id="Rectangle_37" data-name="Rectangle 37" width="126.32" height="52.939" transform="translate(0 0)" fill="none"/>
    </clipPath>
  </defs>
  <g id="Group_897" data-name="Group 897" transform="translate(-66 -962.531)">
    <path id="Path_575" data-name="Path 575" d="M2.93-28.633H14.375a33.064,33.064,0,0,1,5.068.283,7.447,7.447,0,0,1,2.988,1.182,7.349,7.349,0,0,1,2.2,2.393,6.482,6.482,0,0,1,.879,3.35,6.67,6.67,0,0,1-1.084,3.691,6.718,6.718,0,0,1-2.939,2.52,7.535,7.535,0,0,1,4.023,2.6A6.9,6.9,0,0,1,26.914-8.3a8.51,8.51,0,0,1-.908,3.8,7.652,7.652,0,0,1-2.48,2.949A8.193,8.193,0,0,1,19.648-.2Q18.2-.039,12.676,0H2.93Zm5.781,4.766v6.621H12.5q3.379,0,4.2-.1a3.821,3.821,0,0,0,2.334-1.025,3.024,3.024,0,0,0,.85-2.236,3.142,3.142,0,0,0-.732-2.158,3.316,3.316,0,0,0-2.178-1.006q-.859-.1-4.941-.1Zm0,11.387v7.656h5.352A26.153,26.153,0,0,0,18.027-5a3.583,3.583,0,0,0,2.1-1.143,3.517,3.517,0,0,0,.811-2.432,3.735,3.735,0,0,0-.625-2.187,3.532,3.532,0,0,0-1.807-1.309,19.639,19.639,0,0,0-5.127-.41ZM42.37-6.6l5.469.918a8.97,8.97,0,0,1-3.33,4.58A9.783,9.783,0,0,1,38.815.469q-5.41,0-8.008-3.535a11.877,11.877,0,0,1-2.051-7.148q0-5.156,2.7-8.076a8.877,8.877,0,0,1,6.816-2.92,9.207,9.207,0,0,1,7.3,3.057q2.676,3.057,2.559,9.365H34.381a5.553,5.553,0,0,0,1.328,3.8,4.154,4.154,0,0,0,3.164,1.357,3.36,3.36,0,0,0,2.168-.7A4.342,4.342,0,0,0,42.37-6.6Zm.313-5.547a5.284,5.284,0,0,0-1.23-3.623,3.776,3.776,0,0,0-2.852-1.24A3.812,3.812,0,0,0,35.631-15.7a5.064,5.064,0,0,0-1.152,3.555Zm18.034-8.594v4.375h-3.75v8.359a20.792,20.792,0,0,0,.107,2.959,1.206,1.206,0,0,0,.488.693,1.549,1.549,0,0,0,.928.273A7.1,7.1,0,0,0,60.7-4.609l.469,4.258a10.91,10.91,0,0,1-4.336.82,6.877,6.877,0,0,1-2.676-.5,3.905,3.905,0,0,1-1.748-1.289,5.088,5.088,0,0,1-.771-2.139,26.6,26.6,0,0,1-.176-3.867v-9.043h-2.52v-4.375h2.52v-4.121l5.508-3.2v7.324Zm6.51,6.328-4.98-.9a7.757,7.757,0,0,1,2.891-4.453,10.578,10.578,0,0,1,6.094-1.445,13.133,13.133,0,0,1,5.469.869,5.454,5.454,0,0,1,2.529,2.207,11.318,11.318,0,0,1,.732,4.912L79.9-6.816a22.241,22.241,0,0,0,.264,4.033A11.772,11.772,0,0,0,81.152,0h-5.43q-.215-.547-.527-1.621-.137-.488-.2-.645A9.894,9.894,0,0,1,71.991-.215a8.615,8.615,0,0,1-3.418.684A7.068,7.068,0,0,1,63.525-1.27a5.778,5.778,0,0,1-1.846-4.395,5.9,5.9,0,0,1,.84-3.135,5.487,5.487,0,0,1,2.354-2.109,18.394,18.394,0,0,1,4.365-1.279,29.9,29.9,0,0,0,5.332-1.348v-.547a2.842,2.842,0,0,0-.781-2.256,4.682,4.682,0,0,0-2.949-.674,3.927,3.927,0,0,0-2.285.576A4,4,0,0,0,67.226-14.414ZM74.57-9.961a34.305,34.305,0,0,1-3.34.84,10.06,10.06,0,0,0-2.988.957A2.289,2.289,0,0,0,67.167-6.23a2.692,2.692,0,0,0,.859,1.992,3,3,0,0,0,2.188.84,4.753,4.753,0,0,0,2.832-.977,3.438,3.438,0,0,0,1.309-1.816,10.838,10.838,0,0,0,.215-2.676ZM84.166,0V-28.4h5.781V-4.824h14.375V0Zm26.94-14.414-4.98-.9a7.757,7.757,0,0,1,2.891-4.453,10.578,10.578,0,0,1,6.094-1.445,13.133,13.133,0,0,1,5.469.869,5.454,5.454,0,0,1,2.529,2.207,11.318,11.318,0,0,1,.732,4.912l-.059,6.406a22.241,22.241,0,0,0,.264,4.033A11.772,11.772,0,0,0,125.031,0H119.6q-.215-.547-.527-1.621-.137-.488-.2-.645a9.894,9.894,0,0,1-3.008,2.051,8.615,8.615,0,0,1-3.418.684A7.068,7.068,0,0,1,107.4-1.27a5.778,5.778,0,0,1-1.846-4.395A5.9,5.9,0,0,1,106.4-8.8a5.487,5.487,0,0,1,2.354-2.109,18.394,18.394,0,0,1,4.365-1.279,29.9,29.9,0,0,0,5.332-1.348v-.547a2.842,2.842,0,0,0-.781-2.256,4.682,4.682,0,0,0-2.949-.674,3.927,3.927,0,0,0-2.285.576A4,4,0,0,0,111.105-14.414Zm7.344,4.453a34.305,34.305,0,0,1-3.34.84,10.06,10.06,0,0,0-2.988.957,2.289,2.289,0,0,0-1.074,1.934,2.692,2.692,0,0,0,.859,1.992,3,3,0,0,0,2.188.84,4.753,4.753,0,0,0,2.832-.977,3.438,3.438,0,0,0,1.309-1.816,10.838,10.838,0,0,0,.215-2.676ZM146.717,0h-5.488V-10.586a16.361,16.361,0,0,0-.352-4.346,3.048,3.048,0,0,0-1.143-1.533,3.265,3.265,0,0,0-1.9-.547,4.4,4.4,0,0,0-2.559.781,3.936,3.936,0,0,0-1.553,2.07,17.9,17.9,0,0,0-.42,4.766V0h-5.488V-20.742h5.1V-17.7a8.305,8.305,0,0,1,6.836-3.516,8.235,8.235,0,0,1,3.32.654,5.563,5.563,0,0,1,2.275,1.67,6.049,6.049,0,0,1,1.074,2.3,17.142,17.142,0,0,1,.3,3.691Zm23.19,0h-5.1V-3.047a8.236,8.236,0,0,1-3,2.646,7.692,7.692,0,0,1-3.486.869A7.9,7.9,0,0,1,152.2-2.412q-2.549-2.881-2.549-8.037,0-5.273,2.48-8.018a8.087,8.087,0,0,1,6.27-2.744,7.766,7.766,0,0,1,6.016,2.891V-28.633h5.488ZM155.259-10.82a9.5,9.5,0,0,0,.918,4.8,4.148,4.148,0,0,0,3.711,2.148,4.039,4.039,0,0,0,3.223-1.611,7.437,7.437,0,0,0,1.328-4.814q0-3.574-1.289-5.146a4.079,4.079,0,0,0-3.3-1.572,4.123,4.123,0,0,0-3.271,1.553A7.016,7.016,0,0,0,155.259-10.82Z" transform="translate(197 993)" fill="#fff"/>
    <path id="Path_576" data-name="Path 576" d="M11.492,0H8.977l-1-2.6H3.4L2.453,0H0L4.461-11.453H6.906ZM7.234-4.531,5.656-8.781,4.109-4.531ZM12.408,0V-11.453h2.313V0Zm7.9-3.727,2.25-.219a2.745,2.745,0,0,0,.824,1.664,2.492,2.492,0,0,0,1.676.531,2.576,2.576,0,0,0,1.684-.473A1.406,1.406,0,0,0,27.3-3.328a1.043,1.043,0,0,0-.238-.691,1.9,1.9,0,0,0-.832-.5q-.406-.141-1.852-.5a6.281,6.281,0,0,1-2.609-1.133,2.98,2.98,0,0,1-1.055-2.3,2.944,2.944,0,0,1,.5-1.637,3.106,3.106,0,0,1,1.43-1.16,5.73,5.73,0,0,1,2.254-.4,4.835,4.835,0,0,1,3.246.945A3.337,3.337,0,0,1,29.288-8.18l-2.312.1a1.964,1.964,0,0,0-.637-1.27,2.331,2.331,0,0,0-1.465-.387A2.642,2.642,0,0,0,23.3-9.32a.834.834,0,0,0-.367.711.88.88,0,0,0,.344.7,6.08,6.08,0,0,0,2.125.766,11.214,11.214,0,0,1,2.5.824A3.217,3.217,0,0,1,29.159-5.16a3.4,3.4,0,0,1,.457,1.824,3.373,3.373,0,0,1-.547,1.844A3.277,3.277,0,0,1,27.522-.215,6.487,6.487,0,0,1,25.03.2a4.962,4.962,0,0,1-3.336-1A4.367,4.367,0,0,1,20.3-3.727Zm13.19-7.727v4.211a3.238,3.238,0,0,1,2.539-1.242A3.225,3.225,0,0,1,37.4-8.2a2.234,2.234,0,0,1,.918.719,2.605,2.605,0,0,1,.422.969,8.66,8.66,0,0,1,.113,1.648V0h-2.2V-4.383a6.489,6.489,0,0,0-.125-1.656,1.087,1.087,0,0,0-.441-.559A1.42,1.42,0,0,0,35.3-6.8a1.819,1.819,0,0,0-.977.266,1.533,1.533,0,0,0-.629.8,4.783,4.783,0,0,0-.2,1.582V0H31.3V-11.453Zm6.838,7.188a4.488,4.488,0,0,1,.539-2.117A3.7,3.7,0,0,1,42.4-7.945,4.533,4.533,0,0,1,44.6-8.484a4.142,4.142,0,0,1,3.086,1.223,4.224,4.224,0,0,1,1.2,3.09,4.275,4.275,0,0,1-1.215,3.121A4.106,4.106,0,0,1,44.62.188a4.818,4.818,0,0,1-2.176-.516A3.537,3.537,0,0,1,40.87-1.84,5.037,5.037,0,0,1,40.331-4.266Zm2.25.117a2.749,2.749,0,0,0,.586,1.891,1.862,1.862,0,0,0,1.445.656,1.85,1.85,0,0,0,1.441-.656,2.787,2.787,0,0,0,.582-1.906,2.736,2.736,0,0,0-.582-1.875A1.85,1.85,0,0,0,44.612-6.7a1.862,1.862,0,0,0-1.445.656A2.749,2.749,0,0,0,42.581-4.148ZM51.919,0,49.294-8.3h2.133l1.555,5.438L54.412-8.3h2.117l1.383,5.438L59.5-8.3h2.164L59,0H56.888l-1.43-5.336L54.052,0ZM69.812-5.844l-2.164.391a1.57,1.57,0,0,0-.5-.977,1.5,1.5,0,0,0-1-.328,1.64,1.64,0,0,0-1.309.566A2.9,2.9,0,0,0,64.351-4.3a3.357,3.357,0,0,0,.5,2.086,1.629,1.629,0,0,0,1.332.609A1.48,1.48,0,0,0,67.2-1.957a2.138,2.138,0,0,0,.563-1.223l2.156.367A3.826,3.826,0,0,1,68.632-.57a3.99,3.99,0,0,1-2.555.758,3.8,3.8,0,0,1-2.9-1.148,4.453,4.453,0,0,1-1.082-3.18,4.463,4.463,0,0,1,1.086-3.2,3.857,3.857,0,0,1,2.938-1.145,4.007,4.007,0,0,1,2.41.652A3.614,3.614,0,0,1,69.812-5.844Zm3.065.078-1.992-.359a3.1,3.1,0,0,1,1.156-1.781,4.231,4.231,0,0,1,2.438-.578,5.253,5.253,0,0,1,2.188.348,2.182,2.182,0,0,1,1.012.883,4.527,4.527,0,0,1,.293,1.965l-.023,2.563a8.9,8.9,0,0,0,.105,1.613A4.709,4.709,0,0,0,78.447,0H76.275q-.086-.219-.211-.648-.055-.2-.078-.258a3.958,3.958,0,0,1-1.2.82,3.446,3.446,0,0,1-1.367.273,2.827,2.827,0,0,1-2.02-.7,2.311,2.311,0,0,1-.738-1.758,2.36,2.36,0,0,1,.336-1.254,2.195,2.195,0,0,1,.941-.844,7.358,7.358,0,0,1,1.746-.512,11.961,11.961,0,0,0,2.133-.539v-.219a1.137,1.137,0,0,0-.312-.9,1.873,1.873,0,0,0-1.18-.27,1.571,1.571,0,0,0-.914.23A1.6,1.6,0,0,0,72.877-5.766Zm2.938,1.781a13.722,13.722,0,0,1-1.336.336,4.024,4.024,0,0,0-1.2.383.916.916,0,0,0-.43.773,1.077,1.077,0,0,0,.344.8,1.2,1.2,0,0,0,.875.336,1.9,1.9,0,0,0,1.133-.391,1.375,1.375,0,0,0,.523-.727,4.335,4.335,0,0,0,.086-1.07Zm3.307,1.617,2.2-.336a1.614,1.614,0,0,0,.57.973,1.927,1.927,0,0,0,1.2.332,2.172,2.172,0,0,0,1.281-.312.7.7,0,0,0,.289-.586.576.576,0,0,0-.156-.414A1.749,1.749,0,0,0,83.777-3,11.843,11.843,0,0,1,80.41-4.07a2.137,2.137,0,0,1-.984-1.867,2.3,2.3,0,0,1,.852-1.812,3.977,3.977,0,0,1,2.641-.734,4.607,4.607,0,0,1,2.531.555A2.835,2.835,0,0,1,86.59-6.289l-2.07.383a1.28,1.28,0,0,0-.5-.742,1.843,1.843,0,0,0-1.059-.258,2.385,2.385,0,0,0-1.242.242.52.52,0,0,0-.25.445.485.485,0,0,0,.219.4,8.236,8.236,0,0,0,2.051.617,6.1,6.1,0,0,1,2.449.977,2.03,2.03,0,0,1,.688,1.633,2.506,2.506,0,0,1-.953,1.961,4.219,4.219,0,0,1-2.82.82A4.628,4.628,0,0,1,80.414-.5,3.168,3.168,0,0,1,79.121-2.367Zm14.237-.273,2.188.367A3.588,3.588,0,0,1,94.213-.441a3.913,3.913,0,0,1-2.277.629,3.712,3.712,0,0,1-3.2-1.414,4.751,4.751,0,0,1-.82-2.859,4.581,4.581,0,0,1,1.078-3.23,3.551,3.551,0,0,1,2.727-1.168,3.683,3.683,0,0,1,2.922,1.223,5.41,5.41,0,0,1,1.023,3.746h-5.5A2.221,2.221,0,0,0,90.694-2a1.662,1.662,0,0,0,1.266.543,1.344,1.344,0,0,0,.867-.281A1.737,1.737,0,0,0,93.358-2.641Zm.125-2.219a2.114,2.114,0,0,0-.492-1.449,1.51,1.51,0,0,0-1.141-.5,1.525,1.525,0,0,0-1.187.523A2.025,2.025,0,0,0,90.2-4.859Z" transform="translate(197 1012)" fill="#ffc627"/>
    <g id="ASU_Logo" data-name="ASU Logo" transform="translate(66 962.531)">
      <g id="Group_859" data-name="Group 859" transform="translate(0 0)" clip-path="url(#clip-path)">
        <path id="Path_561" data-name="Path 561" d="M123.613,52.222s-.865-.959-2.3-2.507a5.858,5.858,0,0,1-1.676-3.926V.072h-17.3V36.636c-.213,3.464-3.6,4.342-5.464,4.281-2.683-.081-4.244-1.6-4.244-4.176V.072H75.778S68.743.083,63.9.083c-9.224,0-17.927,1.419-20.873,9.1l-1.737-6.8A3.546,3.546,0,0,0,37.97.072H7.853c-.439,0-.6.142-.379.45,0,0,.817.78,2.305,2.483a6.544,6.544,0,0,1,1.256,5.5L0,52.657H16.059l2.308-9.693h15.5l2.413,9.693H57.425c8.679,0,15.738-.884,19.217-6.3,2.6,4.943,8.205,7.261,18.091,6.409,3.442-.294,6.811-1.9,8.256-4.47l.684,2.129a3.622,3.622,0,0,0,3.432,2.236h16.15c.439,0,.581-.131.358-.439M20.779,33.383l5.345-21.59,5.366,21.59Z" fill="#760033"/>
        <path id="Path_562" data-name="Path 562" d="M124.121,4.141a1.943,1.943,0,1,1,.006-3.885A1.922,1.922,0,0,1,126.063,2.2a1.921,1.921,0,0,1-1.942,1.937M124.116,0a2.178,2.178,0,0,0-2.193,2.2,2.2,2.2,0,0,0,4.4.012,2.175,2.175,0,0,0-2.2-2.21m-.809.955h.778a1.087,1.087,0,0,1,.757.176.745.745,0,0,1,.27.6.668.668,0,0,1-.48.67l.542.992h-.522l-.484-.9h-.408v.9h-.453Zm.453.394v.764h.159c.156,0,.214,0,.3-.007a.381.381,0,0,0,.429-.377.346.346,0,0,0-.193-.328,1.112,1.112,0,0,0-.484-.052Z" fill="#760033"/>
        <path id="Path_563" data-name="Path 563" d="M42.6,11.248c-.095.473-.21,1.111-.278,1.56l-3.014-2.8a.329.329,0,0,1,.4-.523Z" fill="#ffbc20"/>
        <path id="Path_564" data-name="Path 564" d="M42.179,15.368c0,.648.028,1.523.1,2.185l-5.834-3.8a.322.322,0,0,1,.3-.569Z" fill="#ffbc20"/>
        <path id="Path_565" data-name="Path 565" d="M43.527,21.9a12.359,12.359,0,0,1-.987-2.808l-8-1.805a.317.317,0,0,0-.2.6Z" fill="#ffbc20"/>
        <path id="Path_566" data-name="Path 566" d="M43.77,22.351c2.707,4.946,8.417,6.916,13.43,8.656,4.883,1.679,9.082,3.132,9.082,6.9a3.449,3.449,0,0,1-1.208,2.623c-1.548,1.409-4.375,2.093-7.484,1.8a12.172,12.172,0,0,1-3.6-1.075l-6.479,8.034a.343.343,0,0,1-.574-.367l4.44-8.929a.108.108,0,0,0-.168-.129l-7.88,6.858a.337.337,0,0,1-.49-.457l6.108-8.114A.1.1,0,0,0,48.818,38l-9.127,5.55a.328.328,0,0,1-.394-.521l7.623-7.075a.093.093,0,0,0-.1-.155l-10.083,4.05a.323.323,0,0,1-.3-.57L45.316,33.5a.093.093,0,0,0-.071-.169L34.536,35.743a.317.317,0,0,1-.2-.6l9.912-4.329a.086.086,0,0,0-.041-.165l-11.02.706a.315.315,0,0,1-.1-.62l10.594-2.716a.087.087,0,0,0-.013-.17L32.679,26.825a.312.312,0,0,1,0-.622L43.7,25.176a.082.082,0,0,0,.012-.162L33.091,22.292a.315.315,0,0,1,.1-.62Z" fill="#ffbc20"/>
        <path id="Path_567" data-name="Path 567" d="M77.661,44.548s.363-.886.552-1.512l2.433,3.234a.335.335,0,0,1-.488.454Z" fill="#ffbc20"/>
        <path id="Path_568" data-name="Path 568" d="M78.781,40.5s.2-1.465.238-2.269l5.164,4.791a.328.328,0,0,1-.393.521Z" fill="#ffbc20"/>
        <path id="Path_569" data-name="Path 569" d="M79.075,36.766a17.665,17.665,0,0,0-.182-2.794l8.133,5.3a.324.324,0,0,1-.3.572Z" fill="#ffbc20"/>
        <path id="Path_570" data-name="Path 570" d="M78.805,33.456h0s-.413-4.541-5.663-8.162a42.788,42.788,0,0,0-9.035-4.278,35.763,35.763,0,0,1-5.926-2.628c-1.716-1.088-2.52-2.257-2.52-3.677a3.462,3.462,0,0,1,1.03-2.577c1.183-1.159,3.335-1.68,6.244-1.656a19.63,19.63,0,0,1,6.433,1.429l6.6-8.162a.343.343,0,0,1,.574.368l-4.488,9.025a.086.086,0,0,0,.134.1L80.158,6.3a.335.335,0,0,1,.488.455l-6.161,8.185a.087.087,0,0,0,.114.126l9.167-5.574a.331.331,0,0,1,.4.526L76.533,17.1a.086.086,0,0,0,.091.143l10.1-4.059a.324.324,0,0,1,.3.572l-8.9,5.792a.087.087,0,0,0,.066.157l10.748-2.423a.317.317,0,0,1,.2.6L79.23,22.213a.087.087,0,0,0,.041.166l11-.706a.317.317,0,0,1,.1.623L79.8,25.008a.087.087,0,0,0,.013.17L90.787,26.2a.314.314,0,0,1,0,.625L79.809,27.849a.087.087,0,0,0-.013.17l10.579,2.712a.317.317,0,0,1-.1.623l-11-.7a.086.086,0,0,0-.041.165l9.912,4.329a.317.317,0,0,1-.2.6Z" fill="#ffbc20"/>
      </g>
    </g>
  </g>
</svg>
